# xmcd CD database file
#
# Track frame offsets:
#	150
#	19433
#	27633
#
# Disc length: 624 seconds
#
# Revision: 0
# Processed by: cddbd v1.5.1PL0 Copyright (c) Steve Scherf et al.
# Submitted via: CDex 1.51
#
DISCID=23026e03
DTITLE=Kiroro - 生きてこそ
DYEAR=2005
DGENRE=JPop
TTITLE0=生きてこそ
TTITLE1=生きてこそ 〜TV ver.〜
TTITLE2=生きてこそ 〜instrumental〜
EXTD=YEAR: 2005
EXTT0=
EXTT1=
EXTT2=
PLAYORDER=
